<svg width="239" height="70" viewBox="0 0 239 70" fill="none" xmlns="http://www.w3.org/2000/svg">
<rect y="35" width="49.4975" height="49.4975" transform="rotate(-45 0 35)" fill="white"/>
<path d="M23.4594 33.8492V18.4037H29.4341C30.1864 18.4037 30.8577 18.5217 31.4478 18.7578C32.0378 18.979 32.532 19.3036 32.9303 19.7314C33.3434 20.1592 33.6532 20.6755 33.8597 21.2804C34.0663 21.8852 34.1695 22.5638 34.1695 23.3162C34.1695 24.0685 34.0663 24.7471 33.8597 25.352C33.6532 25.9568 33.3434 26.4731 32.9303 26.901C32.532 27.3288 32.0378 27.6607 31.4478 27.8967C30.8577 28.118 30.1864 28.2287 29.4341 28.2287H26.8008V33.8492H23.4594ZM26.8008 25.5511H28.5932C29.3751 25.5511 29.9135 25.4036 30.2086 25.1086C30.5184 24.8135 30.6733 24.3267 30.6733 23.6481V22.9843C30.6733 22.3057 30.5184 21.8188 30.2086 21.5238C29.9135 21.2287 29.3751 21.0812 28.5932 21.0812H26.8008V25.5511ZM37.0818 33.8492V18.4037H40.4232V31.1275H47.0617V33.8492H37.0818ZM26.7344 53.8492H23.4594V38.4037H29.4341C30.1864 38.4037 30.8577 38.5217 31.4478 38.7578C32.0378 38.979 32.532 39.3036 32.9303 39.7314C33.3434 40.1592 33.6532 40.6755 33.8597 41.2804C34.0663 41.8852 34.1695 42.5638 34.1695 43.3162C34.1695 44.4078 33.9335 45.3446 33.4614 46.1265C32.9894 46.9083 32.3181 47.4247 31.4478 47.6755L34.4793 53.8492H30.8503L28.2613 48.118H26.7344V53.8492ZM28.6375 45.5511C29.4193 45.5511 29.9578 45.4036 30.2528 45.1086C30.5626 44.8135 30.7175 44.3267 30.7175 43.6481V42.9843C30.7175 42.3057 30.5626 41.8188 30.2528 41.5238C29.9578 41.2287 29.4193 41.0812 28.6375 41.0812H26.7344V45.5511H28.6375ZM42.0386 54.1148C39.9733 54.1148 38.439 53.4214 37.4359 52.0347C36.4475 50.6333 35.9533 48.6638 35.9533 46.1265C35.9533 43.5891 36.4475 41.6271 37.4359 40.2403C38.439 38.8389 39.9733 38.1382 42.0386 38.1382C42.8352 38.1382 43.5359 38.2488 44.1407 38.4701C44.7603 38.6766 45.2914 38.9717 45.734 39.3552C46.1765 39.7388 46.538 40.2035 46.8183 40.7493C47.1133 41.2951 47.342 41.9073 47.5042 42.5859L44.4063 43.3383C44.3178 42.9695 44.2145 42.6302 44.0965 42.3204C43.9785 42.0106 43.8236 41.7451 43.6318 41.5238C43.4548 41.3025 43.2261 41.1329 42.9458 41.0148C42.6803 40.8821 42.3557 40.8157 41.9722 40.8157C41.0723 40.8157 40.4306 41.1697 40.047 41.8778C39.6782 42.5712 39.4938 43.5375 39.4938 44.7766V47.4763C39.4938 48.7155 39.6782 49.6891 40.047 50.3972C40.4306 51.0906 41.0723 51.4373 41.9722 51.4373C42.7393 51.4373 43.2925 51.2012 43.6318 50.7292C43.9858 50.2571 44.244 49.6522 44.4063 48.9146L47.5042 49.667C47.342 50.3456 47.1133 50.9578 46.8183 51.5036C46.538 52.0495 46.1765 52.5215 45.734 52.9199C45.2914 53.3034 44.7603 53.5985 44.1407 53.805C43.5359 54.0115 42.8352 54.1148 42.0386 54.1148Z" fill="#222222"/>
<path d="M58.806 6.21941V11.9116H57.3211V6.21941H55.3313V5.00177H60.7958V6.21941H58.806ZM65.2962 8.83288L65.3754 6.90248H65.2863L63.9994 10.4564L62.7125 6.90248H62.6234L62.7026 8.83288V11.9116H61.4156V5.00177H63.1678L64.0192 7.32815H64.0984L64.9497 5.00177H66.5832V11.9116H65.2962V8.83288Z" fill="white"/>
<path d="M91.54 30V16.04H98.14C98.7933 16.04 99.38 16.1533 99.9 16.38C100.42 16.5933 100.86 16.8933 101.22 17.28C101.593 17.6667 101.88 18.14 102.08 18.7C102.28 19.2467 102.38 19.8467 102.38 20.5C102.38 21.1667 102.28 21.7733 102.08 22.32C101.88 22.8667 101.593 23.3333 101.22 23.72C100.86 24.1067 100.42 24.4133 99.9 24.64C99.38 24.8533 98.7933 24.96 98.14 24.96H94.58V30H91.54ZM94.58 22.32H97.78C98.2333 22.32 98.5867 22.2067 98.84 21.98C99.1067 21.74 99.24 21.3933 99.24 20.94V20.06C99.24 19.6067 99.1067 19.2667 98.84 19.04C98.5867 18.8 98.2333 18.68 97.78 18.68H94.58V22.32ZM108.374 30.24C107.601 30.24 106.908 30.1133 106.294 29.86C105.694 29.6067 105.181 29.24 104.754 28.76C104.341 28.28 104.021 27.7 103.794 27.02C103.568 26.34 103.454 25.58 103.454 24.74C103.454 23.9 103.568 23.14 103.794 22.46C104.021 21.78 104.341 21.2067 104.754 20.74C105.181 20.26 105.694 19.8933 106.294 19.64C106.908 19.3867 107.601 19.26 108.374 19.26C109.148 19.26 109.834 19.3867 110.434 19.64C111.048 19.8933 111.561 20.26 111.974 20.74C112.401 21.2067 112.728 21.78 112.954 22.46C113.181 23.14 113.294 23.9 113.294 24.74C113.294 25.58 113.181 26.34 112.954 27.02C112.728 27.7 112.401 28.28 111.974 28.76C111.561 29.24 111.048 29.6067 110.434 29.86C109.834 30.1133 109.148 30.24 108.374 30.24ZM108.374 27.9C108.961 27.9 109.414 27.72 109.734 27.36C110.054 27 110.214 26.4867 110.214 25.82V23.68C110.214 23.0133 110.054 22.5 109.734 22.14C109.414 21.78 108.961 21.6 108.374 21.6C107.788 21.6 107.334 21.78 107.014 22.14C106.694 22.5 106.534 23.0133 106.534 23.68V25.82C106.534 26.4867 106.694 27 107.014 27.36C107.334 27.72 107.788 27.9 108.374 27.9ZM118.343 30C117.33 30 116.583 29.7533 116.103 29.26C115.637 28.7667 115.403 28.0533 115.403 27.12V15.2H118.363V27.7H119.683V30H118.343ZM129.218 30C128.685 30 128.238 29.8333 127.878 29.5C127.531 29.1667 127.311 28.72 127.218 28.16H127.098C126.938 28.84 126.585 29.36 126.038 29.72C125.491 30.0667 124.818 30.24 124.018 30.24C122.965 30.24 122.158 29.96 121.598 29.4C121.038 28.84 120.758 28.1 120.758 27.18C120.758 26.0733 121.158 25.2533 121.958 24.72C122.771 24.1733 123.871 23.9 125.258 23.9H126.918V23.24C126.918 22.7333 126.785 22.3333 126.518 22.04C126.251 21.7333 125.805 21.58 125.178 21.58C124.591 21.58 124.125 21.7067 123.778 21.96C123.431 22.2133 123.145 22.5 122.918 22.82L121.158 21.26C121.585 20.6333 122.118 20.1467 122.758 19.8C123.411 19.44 124.291 19.26 125.398 19.26C126.891 19.26 128.011 19.5867 128.758 20.24C129.505 20.8933 129.878 21.8467 129.878 23.1V27.7H130.858V30H129.218ZM125.118 28.18C125.611 28.18 126.031 28.0733 126.378 27.86C126.738 27.6467 126.918 27.3 126.918 26.82V25.58H125.478C124.318 25.58 123.738 25.9733 123.738 26.76V27.06C123.738 27.4467 123.858 27.7333 124.098 27.92C124.338 28.0933 124.678 28.18 125.118 28.18ZM132.845 30V19.5H135.805V21.78H135.905C135.958 21.4867 136.052 21.2067 136.185 20.94C136.318 20.66 136.492 20.4133 136.705 20.2C136.932 19.9867 137.198 19.82 137.505 19.7C137.812 19.5667 138.172 19.5 138.585 19.5H139.105V22.26H138.365C137.498 22.26 136.852 22.3733 136.425 22.6C136.012 22.8267 135.805 23.2467 135.805 23.86V30H132.845ZM145.817 30V16.04H148.857V27.3H154.177V30H145.817ZM164.101 30C163.568 30 163.121 29.8333 162.761 29.5C162.414 29.1667 162.194 28.72 162.101 28.16H161.981C161.821 28.84 161.468 29.36 160.921 29.72C160.374 30.0667 159.701 30.24 158.901 30.24C157.848 30.24 157.041 29.96 156.481 29.4C155.921 28.84 155.641 28.1 155.641 27.18C155.641 26.0733 156.041 25.2533 156.841 24.72C157.654 24.1733 158.754 23.9 160.141 23.9H161.801V23.24C161.801 22.7333 161.668 22.3333 161.401 22.04C161.134 21.7333 160.688 21.58 160.061 21.58C159.474 21.58 159.008 21.7067 158.661 21.96C158.314 22.2133 158.028 22.5 157.801 22.82L156.041 21.26C156.468 20.6333 157.001 20.1467 157.641 19.8C158.294 19.44 159.174 19.26 160.281 19.26C161.774 19.26 162.894 19.5867 163.641 20.24C164.388 20.8933 164.761 21.8467 164.761 23.1V27.7H165.741V30H164.101ZM160.001 28.18C160.494 28.18 160.914 28.0733 161.261 27.86C161.621 27.6467 161.801 27.3 161.801 26.82V25.58H160.361C159.201 25.58 158.621 25.9733 158.621 26.76V27.06C158.621 27.4467 158.741 27.7333 158.981 27.92C159.221 28.0933 159.561 28.18 160.001 28.18ZM167.728 15.2H170.688V21.26H170.788C170.934 20.6733 171.268 20.1933 171.788 19.82C172.321 19.4467 172.928 19.26 173.608 19.26C174.941 19.26 175.948 19.7267 176.628 20.66C177.308 21.5933 177.648 22.9533 177.648 24.74C177.648 26.5267 177.308 27.8933 176.628 28.84C175.948 29.7733 174.941 30.24 173.608 30.24C173.261 30.24 172.934 30.1867 172.628 30.08C172.321 29.9867 172.041 29.8533 171.788 29.68C171.548 29.4933 171.341 29.28 171.168 29.04C170.994 28.7867 170.868 28.52 170.788 28.24H170.688V30H167.728V15.2ZM172.628 27.84C173.188 27.84 173.648 27.6467 174.008 27.26C174.381 26.86 174.568 26.3267 174.568 25.66V23.84C174.568 23.1733 174.381 22.6467 174.008 22.26C173.648 21.86 173.188 21.66 172.628 21.66C172.068 21.66 171.601 21.8 171.228 22.08C170.868 22.3467 170.688 22.72 170.688 23.2V26.3C170.688 26.78 170.868 27.16 171.228 27.44C171.601 27.7067 172.068 27.84 172.628 27.84ZM183.456 30.24C182.442 30.24 181.589 30.08 180.896 29.76C180.202 29.4267 179.582 28.96 179.036 28.36L180.776 26.6C181.149 27.0133 181.562 27.34 182.016 27.58C182.469 27.82 182.982 27.94 183.556 27.94C184.142 27.94 184.549 27.8533 184.776 27.68C185.002 27.4933 185.116 27.2467 185.116 26.94C185.116 26.4467 184.762 26.1533 184.056 26.06L182.916 25.92C180.556 25.6267 179.376 24.5467 179.376 22.68C179.376 22.1733 179.469 21.7133 179.656 21.3C179.856 20.8733 180.129 20.5133 180.476 20.22C180.836 19.9133 181.262 19.68 181.756 19.52C182.262 19.3467 182.829 19.26 183.456 19.26C184.002 19.26 184.482 19.3 184.896 19.38C185.322 19.4467 185.696 19.5533 186.016 19.7C186.349 19.8333 186.649 20.0067 186.916 20.22C187.196 20.42 187.469 20.6467 187.736 20.9L186.036 22.64C185.702 22.3067 185.322 22.0467 184.896 21.86C184.482 21.66 184.056 21.56 183.616 21.56C183.109 21.56 182.749 21.64 182.536 21.8C182.322 21.96 182.216 22.1733 182.216 22.44C182.216 22.72 182.289 22.94 182.436 23.1C182.596 23.2467 182.889 23.3533 183.316 23.42L184.496 23.58C186.802 23.8867 187.956 24.94 187.956 26.74C187.956 27.2467 187.849 27.7133 187.636 28.14C187.422 28.5667 187.116 28.94 186.716 29.26C186.329 29.5667 185.856 29.8067 185.296 29.98C184.749 30.1533 184.136 30.24 183.456 30.24ZM93.54 56H91.86V42.04H97.42C98.6467 42.04 99.6 42.38 100.28 43.06C100.973 43.74 101.32 44.72 101.32 46C101.32 47.0267 101.08 47.8733 100.6 48.54C100.133 49.1933 99.44 49.6267 98.52 49.84L101.72 56H99.82L96.8 50H93.54V56ZM97.42 48.56C98.0867 48.56 98.6 48.3867 98.96 48.04C99.3333 47.6933 99.52 47.2 99.52 46.56V45.52C99.52 44.88 99.3333 44.3867 98.96 44.04C98.6 43.6933 98.0867 43.52 97.42 43.52H93.54V48.56H97.42ZM108.08 56.24C107.373 56.24 106.733 56.1133 106.16 55.86C105.6 55.6067 105.113 55.2467 104.7 54.78C104.3 54.3 103.987 53.7333 103.76 53.08C103.547 52.4133 103.44 51.6667 103.44 50.84C103.44 50.0267 103.547 49.2867 103.76 48.62C103.987 47.9533 104.3 47.3867 104.7 46.92C105.113 46.44 105.6 46.0733 106.16 45.82C106.733 45.5667 107.373 45.44 108.08 45.44C108.773 45.44 109.393 45.5667 109.94 45.82C110.487 46.0733 110.953 46.4267 111.34 46.88C111.727 47.32 112.02 47.8467 112.22 48.46C112.433 49.0733 112.54 49.7467 112.54 50.48V51.24H105.12V51.72C105.12 52.16 105.187 52.5733 105.32 52.96C105.467 53.3333 105.667 53.66 105.92 53.94C106.187 54.22 106.507 54.44 106.88 54.6C107.267 54.76 107.7 54.84 108.18 54.84C108.833 54.84 109.4 54.6867 109.88 54.38C110.373 54.0733 110.753 53.6333 111.02 53.06L112.16 53.88C111.827 54.5867 111.307 55.16 110.6 55.6C109.893 56.0267 109.053 56.24 108.08 56.24ZM108.08 46.78C107.64 46.78 107.24 46.86 106.88 47.02C106.52 47.1667 106.207 47.38 105.94 47.66C105.687 47.94 105.487 48.2733 105.34 48.66C105.193 49.0333 105.12 49.4467 105.12 49.9V50.04H110.82V49.82C110.82 48.9 110.567 48.1667 110.06 47.62C109.567 47.06 108.907 46.78 108.08 46.78ZM118.277 56.24C117.317 56.24 116.51 56.06 115.857 55.7C115.217 55.3267 114.663 54.8333 114.197 54.22L115.337 53.3C115.737 53.8067 116.183 54.2 116.677 54.48C117.17 54.7467 117.743 54.88 118.397 54.88C119.077 54.88 119.603 54.7333 119.977 54.44C120.363 54.1467 120.557 53.7333 120.557 53.2C120.557 52.8 120.423 52.46 120.157 52.18C119.903 51.8867 119.437 51.6867 118.757 51.58L117.937 51.46C117.457 51.3933 117.017 51.2933 116.617 51.16C116.217 51.0133 115.863 50.8267 115.557 50.6C115.263 50.36 115.03 50.0667 114.857 49.72C114.697 49.3733 114.617 48.96 114.617 48.48C114.617 47.9733 114.71 47.5333 114.897 47.16C115.083 46.7733 115.337 46.4533 115.657 46.2C115.99 45.9467 116.383 45.76 116.837 45.64C117.29 45.5067 117.777 45.44 118.297 45.44C119.137 45.44 119.837 45.5867 120.397 45.88C120.97 46.1733 121.47 46.58 121.897 47.1L120.837 48.06C120.61 47.74 120.277 47.4533 119.837 47.2C119.397 46.9333 118.843 46.8 118.177 46.8C117.51 46.8 117.003 46.9467 116.657 47.24C116.323 47.52 116.157 47.9067 116.157 48.4C116.157 48.9067 116.323 49.2733 116.657 49.5C117.003 49.7267 117.497 49.8933 118.137 50L118.937 50.12C120.083 50.2933 120.897 50.6267 121.377 51.12C121.857 51.6 122.097 52.2333 122.097 53.02C122.097 54.02 121.757 54.8067 121.077 55.38C120.397 55.9533 119.463 56.24 118.277 56.24ZM128.803 56.24C128.096 56.24 127.456 56.1133 126.883 55.86C126.323 55.6067 125.836 55.2467 125.423 54.78C125.023 54.3 124.709 53.7333 124.483 53.08C124.269 52.4133 124.163 51.6667 124.163 50.84C124.163 50.0267 124.269 49.2867 124.483 48.62C124.709 47.9533 125.023 47.3867 125.423 46.92C125.836 46.44 126.323 46.0733 126.883 45.82C127.456 45.5667 128.096 45.44 128.803 45.44C129.496 45.44 130.116 45.5667 130.663 45.82C131.209 46.0733 131.676 46.4267 132.063 46.88C132.449 47.32 132.743 47.8467 132.943 48.46C133.156 49.0733 133.263 49.7467 133.263 50.48V51.24H125.843V51.72C125.843 52.16 125.909 52.5733 126.043 52.96C126.189 53.3333 126.389 53.66 126.643 53.94C126.909 54.22 127.229 54.44 127.603 54.6C127.989 54.76 128.423 54.84 128.903 54.84C129.556 54.84 130.123 54.6867 130.603 54.38C131.096 54.0733 131.476 53.6333 131.743 53.06L132.883 53.88C132.549 54.5867 132.029 55.16 131.323 55.6C130.616 56.0267 129.776 56.24 128.803 56.24ZM128.803 46.78C128.363 46.78 127.963 46.86 127.603 47.02C127.243 47.1667 126.929 47.38 126.663 47.66C126.409 47.94 126.209 48.2733 126.063 48.66C125.916 49.0333 125.843 49.4467 125.843 49.9V50.04H131.543V49.82C131.543 48.9 131.289 48.1667 130.783 47.62C130.289 47.06 129.629 46.78 128.803 46.78ZM143.399 56C142.799 56 142.366 55.84 142.099 55.52C141.846 55.2 141.686 54.8 141.619 54.32H141.519C141.293 54.96 140.919 55.44 140.399 55.76C139.879 56.08 139.259 56.24 138.539 56.24C137.446 56.24 136.593 55.96 135.979 55.4C135.379 54.84 135.079 54.08 135.079 53.12C135.079 52.1467 135.433 51.4 136.139 50.88C136.859 50.36 137.973 50.1 139.479 50.1H141.519V49.08C141.519 48.3467 141.319 47.7867 140.919 47.4C140.519 47.0133 139.906 46.82 139.079 46.82C138.453 46.82 137.926 46.96 137.499 47.24C137.086 47.52 136.739 47.8933 136.459 48.36L135.499 47.46C135.779 46.9 136.226 46.4267 136.839 46.04C137.453 45.64 138.226 45.44 139.159 45.44C140.413 45.44 141.386 45.7467 142.079 46.36C142.773 46.9733 143.119 47.8267 143.119 48.92V54.6H144.299V56H143.399ZM138.799 54.88C139.199 54.88 139.566 54.8333 139.899 54.74C140.233 54.6467 140.519 54.5133 140.759 54.34C140.999 54.1667 141.186 53.9667 141.319 53.74C141.453 53.5133 141.519 53.2667 141.519 53V51.3H139.399C138.479 51.3 137.806 51.4333 137.379 51.7C136.966 51.9667 136.759 52.3533 136.759 52.86V53.28C136.759 53.7867 136.939 54.18 137.299 54.46C137.673 54.74 138.173 54.88 138.799 54.88ZM146.583 56V45.68H148.183V47.58H148.283C148.469 47.0867 148.803 46.6467 149.283 46.26C149.763 45.8733 150.423 45.68 151.263 45.68H151.883V47.28H150.943C150.076 47.28 149.396 47.4467 148.903 47.78C148.423 48.1 148.183 48.5067 148.183 49V56H146.583ZM157.669 56.24C156.949 56.24 156.302 56.1133 155.729 55.86C155.156 55.6067 154.669 55.2467 154.269 54.78C153.882 54.3133 153.582 53.7467 153.369 53.08C153.169 52.4133 153.069 51.6667 153.069 50.84C153.069 50.0133 153.169 49.2667 153.369 48.6C153.582 47.9333 153.882 47.3667 154.269 46.9C154.669 46.4333 155.156 46.0733 155.729 45.82C156.302 45.5667 156.949 45.44 157.669 45.44C158.696 45.44 159.516 45.6667 160.129 46.12C160.756 46.56 161.222 47.14 161.529 47.86L160.189 48.54C160.002 48.0067 159.696 47.5933 159.269 47.3C158.842 47.0067 158.309 46.86 157.669 46.86C157.189 46.86 156.769 46.94 156.409 47.1C156.049 47.2467 155.749 47.46 155.509 47.74C155.269 48.0067 155.089 48.3333 154.969 48.72C154.849 49.0933 154.789 49.5067 154.789 49.96V51.72C154.789 52.6267 155.029 53.3733 155.509 53.96C156.002 54.5333 156.722 54.82 157.669 54.82C158.962 54.82 159.896 54.22 160.469 53.02L161.629 53.8C161.296 54.5467 160.796 55.14 160.129 55.58C159.476 56.02 158.656 56.24 157.669 56.24ZM163.888 41.2H165.488V47.36H165.568C165.821 46.7733 166.174 46.3067 166.628 45.96C167.094 45.6133 167.714 45.44 168.488 45.44C169.554 45.44 170.394 45.7867 171.008 46.48C171.634 47.16 171.948 48.1267 171.948 49.38V56H170.348V49.66C170.348 47.8067 169.568 46.88 168.008 46.88C167.688 46.88 167.374 46.92 167.068 47C166.774 47.08 166.508 47.2 166.268 47.36C166.028 47.52 165.834 47.7267 165.688 47.98C165.554 48.22 165.488 48.5067 165.488 48.84V56H163.888V41.2ZM185.061 56.24C183.288 56.24 181.908 55.64 180.921 54.44C179.935 53.2267 179.441 51.4467 179.441 49.1C179.441 46.7533 179.935 44.9533 180.921 43.7C181.908 42.4333 183.288 41.8 185.061 41.8C186.235 41.8 187.215 42.0667 188.001 42.6C188.801 43.1333 189.421 43.8867 189.861 44.86L188.501 45.68C188.221 44.96 187.795 44.3867 187.221 43.96C186.648 43.52 185.928 43.3 185.061 43.3C184.461 43.3 183.921 43.4133 183.441 43.64C182.975 43.8667 182.575 44.1933 182.241 44.62C181.921 45.0333 181.675 45.5333 181.501 46.12C181.328 46.6933 181.241 47.34 181.241 48.06V50.14C181.241 51.58 181.575 52.7067 182.241 53.52C182.908 54.3333 183.848 54.74 185.061 54.74C185.955 54.74 186.701 54.5133 187.301 54.06C187.901 53.5933 188.341 52.98 188.621 52.22L189.961 53.06C189.521 54.0467 188.888 54.8267 188.061 55.4C187.235 55.96 186.235 56.24 185.061 56.24ZM196.283 56.24C195.576 56.24 194.936 56.1133 194.363 55.86C193.803 55.6067 193.316 55.2467 192.903 54.78C192.503 54.3 192.19 53.7333 191.963 53.08C191.75 52.4133 191.643 51.6667 191.643 50.84C191.643 50.0267 191.75 49.2867 191.963 48.62C192.19 47.9533 192.503 47.3867 192.903 46.92C193.316 46.44 193.803 46.0733 194.363 45.82C194.936 45.5667 195.576 45.44 196.283 45.44C196.976 45.44 197.596 45.5667 198.143 45.82C198.69 46.0733 199.156 46.4267 199.543 46.88C199.93 47.32 200.223 47.8467 200.423 48.46C200.636 49.0733 200.743 49.7467 200.743 50.48V51.24H193.323V51.72C193.323 52.16 193.39 52.5733 193.523 52.96C193.67 53.3333 193.87 53.66 194.123 53.94C194.39 54.22 194.71 54.44 195.083 54.6C195.47 54.76 195.903 54.84 196.383 54.84C197.036 54.84 197.603 54.6867 198.083 54.38C198.576 54.0733 198.956 53.6333 199.223 53.06L200.363 53.88C200.03 54.5867 199.51 55.16 198.803 55.6C198.096 56.0267 197.256 56.24 196.283 56.24ZM196.283 46.78C195.843 46.78 195.443 46.86 195.083 47.02C194.723 47.1667 194.41 47.38 194.143 47.66C193.89 47.94 193.69 48.2733 193.543 48.66C193.396 49.0333 193.323 49.4467 193.323 49.9V50.04H199.023V49.82C199.023 48.9 198.77 48.1667 198.263 47.62C197.77 47.06 197.11 46.78 196.283 46.78ZM203.38 56V45.68H204.98V47.36H205.06C205.313 46.7733 205.666 46.3067 206.12 45.96C206.586 45.6133 207.206 45.44 207.98 45.44C209.046 45.44 209.886 45.7867 210.5 46.48C211.126 47.16 211.44 48.1267 211.44 49.38V56H209.84V49.66C209.84 47.8067 209.06 46.88 207.5 46.88C207.18 46.88 206.866 46.92 206.56 47C206.266 47.08 206 47.2 205.76 47.36C205.52 47.52 205.326 47.7267 205.18 47.98C205.046 48.22 204.98 48.5067 204.98 48.84V56H203.38ZM217.027 56C216.467 56 216.04 55.8467 215.747 55.54C215.467 55.22 215.327 54.8067 215.327 54.3V47.08H213.627V45.68H214.587C214.934 45.68 215.167 45.6133 215.287 45.48C215.42 45.3333 215.487 45.0867 215.487 44.74V42.82H216.927V45.68H219.187V47.08H216.927V54.6H219.027V56H217.027ZM225.56 56.24C224.854 56.24 224.214 56.1133 223.64 55.86C223.08 55.6067 222.594 55.2467 222.18 54.78C221.78 54.3 221.467 53.7333 221.24 53.08C221.027 52.4133 220.92 51.6667 220.92 50.84C220.92 50.0267 221.027 49.2867 221.24 48.62C221.467 47.9533 221.78 47.3867 222.18 46.92C222.594 46.44 223.08 46.0733 223.64 45.82C224.214 45.5667 224.854 45.44 225.56 45.44C226.254 45.44 226.874 45.5667 227.42 45.82C227.967 46.0733 228.434 46.4267 228.82 46.88C229.207 47.32 229.5 47.8467 229.7 48.46C229.914 49.0733 230.02 49.7467 230.02 50.48V51.24H222.6V51.72C222.6 52.16 222.667 52.5733 222.8 52.96C222.947 53.3333 223.147 53.66 223.4 53.94C223.667 54.22 223.987 54.44 224.36 54.6C224.747 54.76 225.18 54.84 225.66 54.84C226.314 54.84 226.88 54.6867 227.36 54.38C227.854 54.0733 228.234 53.6333 228.5 53.06L229.64 53.88C229.307 54.5867 228.787 55.16 228.08 55.6C227.374 56.0267 226.534 56.24 225.56 56.24ZM225.56 46.78C225.12 46.78 224.72 46.86 224.36 47.02C224 47.1667 223.687 47.38 223.42 47.66C223.167 47.94 222.967 48.2733 222.82 48.66C222.674 49.0333 222.6 49.4467 222.6 49.9V50.04H228.3V49.82C228.3 48.9 228.047 48.1667 227.54 47.62C227.047 47.06 226.387 46.78 225.56 46.78ZM232.657 56V45.68H234.257V47.58H234.357C234.544 47.0867 234.877 46.6467 235.357 46.26C235.837 45.8733 236.497 45.68 237.337 45.68H237.957V47.28H237.017C236.15 47.28 235.47 47.4467 234.977 47.78C234.497 48.1 234.257 48.5067 234.257 49V56H232.657Z" fill="white"/>
</svg>
